<svg xmlns="http://www.w3.org/2000/svg" xmlns:xlink="http://www.w3.org/1999/xlink" id="Capa_2" data-name="Capa 2" viewBox="0 0 246.99 179.64"><defs><style>      .cls-1 {        fill: url(#linear-gradient);      }      .cls-1, .cls-2, .cls-3, .cls-4, .cls-5 {        stroke-width: 0px;      }      .cls-2 {        fill: url(#linear-gradient-4);      }      .cls-3 {        fill: url(#linear-gradient-2);      }      .cls-4 {        fill: url(#linear-gradient-3);      }      .cls-5 {        fill: url(#linear-gradient-5);      }    </style><linearGradient id="linear-gradient" x1="-13.04" y1="95.83" x2="237.77" y2="61.51" gradientUnits="userSpaceOnUse"><stop offset="0" stop-color="#dcbb81"></stop><stop offset=".31" stop-color="#997860"></stop><stop offset=".65" stop-color="#dcbb81"></stop><stop offset="1" stop-color="#997860"></stop></linearGradient><linearGradient id="linear-gradient-2" x1="-10.79" y1="112.27" x2="240.02" y2="77.95" xlink:href="#linear-gradient"></linearGradient><linearGradient id="linear-gradient-3" x1="-5.96" y1="147.6" x2="244.86" y2="113.28" xlink:href="#linear-gradient"></linearGradient><linearGradient id="linear-gradient-4" x1="-8.74" y1="127.28" x2="242.08" y2="92.96" xlink:href="#linear-gradient"></linearGradient><linearGradient id="linear-gradient-5" x1="-9.37" y1="122.66" x2="241.44" y2="88.34" xlink:href="#linear-gradient"></linearGradient></defs><g id="Capa_1-2" data-name="Capa 1"><g><path class="cls-1" d="M80.67,146.07c.5.4.7.7.6.91-.1.2-.45.2-1.06,0-.2,0-.4-.05-.6-.15-.2-.1-.45-.2-.75-.3-.3-.1-.55-.2-.75-.3-3.32-1.21-7.35-1.26-12.08-.15-3.52.8-7.45,2.16-11.78,4.08-6.14,2.82-13.44,7.04-21.89,12.68-1.81,1.11-5.11,3.32-9.89,6.64-4.78,3.32-8.53,5.79-11.25,7.4-1.21.7-2.17,1.26-2.87,1.66-1.61.7-2.82,1.06-3.62,1.06-.3.1-.7.05-1.21-.15-.4-.1-.8-.3-1.21-.6-.6-.5-.96-1.31-1.06-2.42-.1-.81.05-2.01.45-3.62.6-2.42,2.17-6.44,4.68-12.08,2.62-5.94,6.49-14.27,11.63-24.99,5.13-10.72,8.46-17.74,9.96-21.06,7.25-15.5,14.34-30.85,21.29-46.05.2-.6.55-1.46,1.06-2.57,4.13-8.55,7.45-16.31,9.96-23.25,3.42-9.66,5.49-17.67,6.19-24.01.4-5.03-.05-8.86-1.36-11.47-.91-1.61-2.11-2.72-3.62-3.32-1.51-.5-3.32-.6-5.44-.3-3.32.5-7.05,1.96-11.17,4.38-3.32,1.91-6.7,4.28-10.12,7.1-13.49,11.38-23.1,24.81-28.84,40.31-3.12,8.76-4.38,16.96-3.77,24.61.4,4.73,1.56,8.61,3.47,11.63,1.21,1.81,2.62,3.17,4.23,4.08,1.81.91,3.7,1.13,5.66.68,1.96-.45,2.99-.53,3.09-.23.1.1.05.25-.15.45s-.55.43-1.06.68c-.5.25-1.01.48-1.51.68-2.42.5-4.68.2-6.79-.91-1.91-.91-3.52-2.42-4.83-4.53-2.11-3.22-3.47-7.35-4.08-12.38-.7-7.85.5-16.36,3.62-25.52,5.64-16.1,15.3-30.05,28.99-41.82,3.52-3.12,7-5.69,10.42-7.7C47.75,2.48,51.88.82,55.61.22c2.62-.4,4.98-.25,7.1.45,2.42.81,4.28,2.47,5.59,4.98,1.01,1.71,1.66,3.93,1.96,6.64.2,2.11.25,4.38.15,6.79-.6,6.74-2.62,15.15-6.04,25.21-2.52,7.05-5.74,14.95-9.66,23.7-.1.1-.3.48-.6,1.13-.3.66-.5,1.13-.6,1.43-7.15,15.1-14.5,30.4-22.04,45.9-1.51,3.22-4.91,10.17-10.19,20.84s-9.34,18.92-12.15,24.76c-2.42,5.44-3.98,9.26-4.68,11.48-.3,1.21-.4,2.11-.3,2.72v.45h.15l.15.15h.3l1.06-.3c.1,0,.3-.08.6-.23.3-.15.55-.23.75-.23.6-.4,1.51-.91,2.72-1.51,2.62-1.61,6.34-4.03,11.17-7.25,4.83-3.22,8.2-5.39,10.12-6.49,8.66-5.54,16.1-9.66,22.35-12.38,4.43-2.01,8.5-3.37,12.23-4.08,5.03-1.01,9.31-.86,12.83.45.7.2,1.41.6,2.11,1.21Z"></path><path class="cls-3" d="M124.45,85.83c.4.2.45.66.15,1.36-1.01,1.71-2.77,3.98-5.29,6.79-1.71,2.11-3.72,4.28-6.04,6.49-4.83,4.63-9.36,8.41-13.59,11.32-.71.4-1.36.81-1.96,1.21-.4.2-.81.4-1.21.6l-1.66.6c-1.21.4-2.22.3-3.02-.3-.6-.7-.86-1.71-.75-3.02,0-.8.05-1.41.15-1.81.1-.7.2-1.11.3-1.21.1-.6.25-1.36.45-2.26.1-.2.35-.96.75-2.26-1.41,2.11-2.82,3.98-4.23,5.59-2.52,2.62-4.98,4.33-7.4,5.13-1.81.5-3.52.55-5.13.15-1.11-.4-1.91-1.01-2.42-1.81-.5-.6-.91-1.46-1.21-2.57-.3-2.21.05-5.28,1.06-9.21,1.31-4.63,3.72-10.32,7.25-17.06.1-.3.25-.4.45-.3l3.47,1.96c.2.1.2.3,0,.6-3.42,6.04-5.94,11.38-7.55,16-1.11,3.12-1.51,5.59-1.21,7.4.2,1.01.6,1.61,1.21,1.81.91.4,1.96.4,3.17,0,2.01-.5,4.13-1.86,6.34-4.08,1.71-1.61,3.47-3.67,5.28-6.19,1.71-2.62,3.42-5.53,5.13-8.76,1-2.31,2.01-4.63,3.02-6.95.1-.3.25-.45.45-.45l3.62,1.81c.2.1.25.3.15.6-3.02,5.94-5.44,11.17-7.25,15.7-.5,1.41-1.01,2.77-1.51,4.08-.2.71-.4,1.36-.6,1.96l-.3,1.36v.6c.1.1.3.1.6,0l.3-.15c.1,0,.35-.1.75-.3.6-.3,1.21-.65,1.81-1.06,4.23-2.62,8.81-6.09,13.74-10.42,2.31-2.11,4.38-4.13,6.19-6.04,2.62-2.72,4.38-4.83,5.28-6.34.4-.6.8-.8,1.21-.6Z"></path><path class="cls-4" d="M173.67,85.68c.2.1.3.33.3.68s-.08.86-.23,1.51c-.15.66-.38,1.28-.68,1.89-.5,1.11-1.11,2.14-1.81,3.1-.71.96-1.51,1.91-2.42,2.87-.91.96-1.69,1.74-2.34,2.34-.66.6-1.64,1.46-2.94,2.57-3.93,3.32-8.21,6.29-12.83,8.91-.81.5-2.09,1.18-3.85,2.04-1.76.86-2.77,1.36-3.02,1.51-.25.15-.93.48-2.04.98-.6,2.42-.91,3.73-.91,3.93-3.12,11.48-6.39,21.34-9.81,29.59-2.32,5.44-4.68,10.17-7.1,14.19-3.22,5.33-6.59,9.41-10.12,12.23-2.62,2.01-5.13,3.27-7.55,3.77-1.21.4-2.62.6-4.23.6-1.81-.1-3.17-.25-4.08-.45-3.12-.5-5.74-1.61-7.85-3.32-2.31-1.81-3.87-4.18-4.68-7.1-.7-2.52-.8-5.28-.3-8.3.4-2.52,1.16-5.08,2.26-7.7,1.91-4.33,4.83-8.76,8.76-13.29,6.75-7.55,15.2-13.59,25.37-18.12,1.21-.6,3.62-1.61,7.25-3.02l7.25-2.72,1.51-.6c1.61-6.74,2.97-13.29,4.08-19.63-1.71,4.03-3.57,7.6-5.59,10.72-2.52,3.42-4.98,5.94-7.4,7.55-1.91,1.31-3.77,2.01-5.59,2.11-1.11.1-2.27-.1-3.47-.6-1.21-.5-2.11-1.26-2.72-2.26-.1,0-.25-.2-.45-.6-.91-1.71-1.31-3.72-1.21-6.04.1-1.61.45-3.42,1.06-5.44,1.11-3.22,2.62-6.34,4.53-9.36,1.01-1.71,2.06-3.12,3.17-4.23,1.71-1.61,3.42-2.47,5.13-2.57,1.11-.1,2.11.1,3.02.6.8.6,1.46,1.36,1.96,2.26.91,1.91.96,3.77.15,5.59-.2.5-.5.63-.91.38-.4-.25-.55-.58-.45-.98.5-1.41.35-2.77-.45-4.08-.71-1.31-1.71-1.86-3.02-1.66-1.11.2-2.26.96-3.47,2.27-.91,1.01-1.76,2.32-2.57,3.93-1.51,2.82-2.67,5.79-3.47,8.91-.3,1.71-.45,3.17-.45,4.38.1,1.61.4,2.82.91,3.62.1.1.2.2.3.3.3.5.6.86.91,1.06.3.1.5.15.6.15s.23.03.38.08c.15.05.28.08.38.08,1.11,0,2.36-.35,3.77-1.06,2.11-1.21,4.43-3.27,6.95-6.19,3.42-4.33,6.59-10.06,9.51-17.21.1-.4.2-.6.3-.6l3.93.6c.3.1.35.71.15,1.81-1.41,7.95-3.12,15.96-5.13,24.01l.3-.15.3-.15c.5-.3,1.23-.68,2.19-1.13.96-.45,1.81-.85,2.57-1.21.75-.35,1.43-.73,2.04-1.13,4.53-2.42,8.76-5.23,12.68-8.46,1.71-1.51,2.97-2.62,3.78-3.32.8-.7,1.74-1.71,2.79-3.02,1.06-1.31,1.94-2.67,2.64-4.08,1.21-2.21,1.86-3.32,1.96-3.32ZM136.68,116.93c.1-.1.15-.23.15-.38s.05-.23.15-.23h-.15l-7.25,2.87c-.2.1-.66.28-1.36.53-.71.25-1.23.45-1.58.6-.35.15-.81.33-1.36.53-.55.2-1.06.4-1.51.6-.45.2-.88.4-1.28.6-9.86,4.63-17.97,10.62-24.31,17.97-3.72,4.33-6.39,8.5-8,12.53-1.11,2.42-1.81,4.78-2.11,7.1-.3,2.62-.15,4.93.45,6.95.6,2.31,1.81,4.18,3.62,5.59,1.71,1.31,3.83,2.16,6.34,2.57.81.1,2.01.2,3.62.3,1.31,0,2.47-.15,3.47-.45,1.91-.5,3.93-1.61,6.04-3.32,3.22-2.62,6.34-6.44,9.36-11.48,2.21-3.83,4.38-8.36,6.49-13.59,3.32-8.25,6.39-18.02,9.21-29.29Z"></path><path class="cls-2" d="M213.15,85.9c.35.35.23.83-.38,1.43-8.25,9.66-12.94,15.1-14.04,16.31-2.52,2.92-4.98,5.54-7.4,7.85-3.22,3.22-5.99,5.69-8.3,7.4-.81.6-1.61,1.11-2.42,1.51-1.11.6-2.06,1.01-2.87,1.21-1.91.3-3.27-.15-4.08-1.36-.3-.4-.5-1.06-.6-1.96v-1.81c.3-2.42,1.21-6.04,2.72-10.87.5-1.41,1.06-3.02,1.66-4.83-1.31,1.41-2.57,2.57-3.77,3.47-.71.5-1.31.91-1.81,1.21-.1,0-.5.1-1.21.3-.81.1-1.36.15-1.66.15-1.21-.2-2.16-.75-2.87-1.66-.5-.7-.85-1.61-1.06-2.72v-.6c0-2.21.71-4.78,2.11-7.7,1.11-2.21,2.46-4.28,4.08-6.19,2.01-2.21,3.98-3.77,5.89-4.68,1.71-.7,3.12-.91,4.23-.6.5.2.88.5,1.13.91.25.4.33.86.23,1.36,0,.6-.25,1.26-.75,1.96-.2.3-.5.3-.91,0-.4-.3-.5-.55-.3-.75.3-.5.45-.91.45-1.21-.1-.2-.25-.35-.45-.45-.6-.1-1.46.15-2.57.75-1.51.91-3.02,2.42-4.53,4.53-1.21,1.91-2.21,3.88-3.02,5.89-.81,2.42-1.11,4.43-.91,6.04v.75c0,.1.05.15.15.15h.45c.3-.1.7-.3,1.21-.6,1.51-.8,3.22-2.16,5.13-4.08,1.21-1.21,2.47-2.62,3.77-4.23,1.11-2.62,2.16-5.13,3.17-7.55.2-.3.4-.45.6-.45l3.62,1.81c.2.1.2.3,0,.6-3.52,7.45-6.34,13.99-8.46,19.63-1.61,4.43-2.57,7.75-2.87,9.96-.1.1-.15.3-.15.6v.45c0,.1.05.2.15.3.1.2.3.3.6.3,1-.2,2.42-.91,4.23-2.11,3.82-2.62,9.11-7.4,15.85-14.34,1.21-1.21,6.04-6.39,14.49-15.55.6-.7,1.08-.88,1.43-.53Z"></path><path class="cls-5" d="M246.75,85.83c.4.3.3.81-.3,1.51-4.13,6.14-8.41,11.78-12.83,16.91-2.62,3.02-5.19,5.74-7.7,8.15-3.42,3.12-6.49,5.39-9.21,6.79-2.22,1.11-4.23,1.66-6.04,1.66-1.31,0-2.46-.3-3.47-.91-1.11-.6-1.86-1.61-2.26-3.02-.5-1.71-.5-3.82,0-6.34.3-1.61.81-3.47,1.51-5.59,1.81-4.93,4.43-10.37,7.85-16.31-1.51-.4-2.87-.96-4.08-1.66-1.41-.8-2.51-1.71-3.32-2.72-.91-1.21-1.51-2.52-1.81-3.93-.6-2.42-.4-5.08.6-8,1.01-2.62,2.42-4.78,4.23-6.49,1.21-1.11,2.47-1.81,3.77-2.11.8-.2,1.61-.2,2.42,0l1.06.45.91.6c.2.1.5.4.91.91.1.2.25.6.45,1.21.2.3.3.66.3,1.06v1.06c-.1,1.01-.45,2.26-1.06,3.77-1.31,2.82-3.53,6.34-6.64,10.57h.15c1.31.6,2.87.96,4.68,1.06h.3c.5.1.8.15.91.15.2,0,.3.1.3.3v.45l2.11,1.36c.2.1.15.3-.15.6-4.63,7.25-8.05,13.59-10.27,19.02-.81,1.91-1.36,3.57-1.66,4.98-.5,1.91-.55,3.42-.15,4.53.2.6.45,1.01.75,1.21.1.1.35.25.75.45h.45c.2.1.4.1.6,0,1.31.1,2.82-.25,4.53-1.06,2.51-1.21,5.44-3.22,8.76-6.04,2.52-2.21,5.13-4.78,7.85-7.7,4.63-5.03,9.06-10.42,13.29-16.16.6-.8,1.11-1.06,1.51-.75ZM208.7,79.49c.4,1.21,1.11,2.21,2.11,3.02,2.82-4.23,4.73-7.7,5.74-10.42,1.11-2.72,1.06-4.43-.15-5.13-.2-.2-.35-.3-.45-.3l-.6-.15c-.4-.1-.75-.1-1.06,0-.71.2-1.46.71-2.26,1.51-1.41,1.61-2.44,3.47-3.1,5.59s-.73,4.08-.23,5.89Z"></path></g></g></svg>